<?xml version="1.0" encoding="utf-8"?>
<!-- Generator: Adobe Illustrator 24.1.2, SVG Export Plug-In . SVG Version: 6.00 Build 0)  -->
<svg version="1.1" id="LOGO_FINAL_xA0_Image_1_" xmlns="http://www.w3.org/2000/svg" xmlns:xlink="http://www.w3.org/1999/xlink"
	 x="0px" y="0px" viewBox="0 0 1550.6 1274.7" style="enable-background:new 0 0 1550.6 1274.7;" xml:space="preserve">
<style type="text/css">
	.st0{fill:#EB4C4C;}
	.st1{fill:#F6AB9D;}
	.st2{fill:#0B2A3B;}
	.st3{fill:#0B293A;}
	.st4{fill:#37505E;}
	.st5{fill:#DEE2E4;}
</style>
<g>
	<path class="st0" d="M1523.7,36.4c-4.4,11-8.7,21.8-13.1,32.6c-45.1,111.8-90.2,223.7-135.3,335.5
		C1317,549,1258.7,693.5,1200.4,838c-10.9,27-21.7,54-32.7,80.9c-12.2,29.9-38.2,47.3-70.4,47.3c-84.7,0-169.3,0-254,0
		c-20.8,0-35.8-10-43.8-29.4C738.2,786.9,676.9,636.9,615.6,487c-7.9-19.4-7.3-38.5-0.1-58.2c8.8-24,16.2-48.6,24.1-72.9
		c26.9-83.2,53.9-166.4,80.8-249.6c7.5-23.1,14.9-46.2,22.7-70.5C820.5,223.8,897.6,410.8,975,598.9c4.9-12.1,9.4-23.2,13.9-34.3
		c65.7-163.1,131.4-326.1,197.1-489.2c4.7-11.7,9.5-23.4,14.1-35.2c1.1-2.8,2.3-4.1,5.7-4.1c104.8,0.1,209.7,0.1,314.5,0.1
		C1521.2,36.2,1522.2,36.3,1523.7,36.4z"/>
	<path class="st1" d="M30.4,36.2c2.7,0,4.7,0,6.7,0c88.7,0,177.3,0.2,266-0.1c29.3-0.1,57.5,18,69.3,46.8
		c31.8,77.8,63.8,155.4,95.8,233.1c25.6,62.3,51.3,124.6,76.9,186.9c28,68,56,136,84,204s56,136,84,204c7.5,18.1,15,36.3,22.5,54.4
		c0.3,0.7,0.5,1.5,1,3c-2.4,0-4.4,0-6.3,0c-89.2,0-178.3-0.2-267.5,0.1c-28.2,0.1-56.7-18.3-68.1-46.2
		C366.5,853.1,338,784.1,309.6,715c-24.4-59.4-48.8-118.8-73.2-178.1c-29.2-70.9-58.5-141.8-87.7-212.7
		c-24.5-59.5-49-119.1-73.4-178.6C61,111.2,46.8,76.7,32.6,42.3C32,40.6,31.4,38.9,30.4,36.2z"/>
	<path class="st2" d="M529.8,1048.6c-7.7,24-15.4,48.1-23.2,72.1c-13,40-26,79.9-39,119.9c-0.3,0.8-0.6,1.5-0.9,2.5
		c-11.2,0-22.2,0-33.6,0c-11.9-40-23.8-79.9-36-121.1c-4.7,15.8-9.1,30.2-13.4,44.6c-7.1,23.9-14.4,47.7-21.3,71.6
		c-1.2,4.3-3.2,5.3-7.2,5.1c-9.1-0.3-18.3-0.1-27.9-0.1c-3-9.3-6-18.5-9-27.8c-18-55.4-36-110.9-54.1-166.3
		c-0.2-0.6-0.3-1.3-0.4-1.9c0.3-0.3,0.6-0.5,0.9-0.8c11.7,0,23.3,0,35-0.2c3.3-0.1,4.5,1.2,5.4,4.2c12.8,39.3,25.7,78.6,38.5,117.9
		c0.4,1.3,0.9,2.5,1.7,4.8c12.1-42.8,23.9-84.6,35.8-126.5c10.5,0,20.7,0,31.6,0c11.7,41.6,23.5,83.4,35.6,126.2
		c1-2.4,1.9-4.1,2.5-5.9c12.7-38.5,25.5-76.9,38-115.5c1.3-4.1,3.2-5.3,7.3-5.1c11.2,0.3,22.3,0.2,33.5,0.2
		C529.7,1047.2,529.7,1047.9,529.8,1048.6z"/>
	<path class="st3" d="M948.1,1243.1c-12.3,0-24.2,0-36.5,0c0-2,0-3.7,0-5.4c-6.3,2.5-12.1,6-18.4,7.3c-22.4,4.6-42.3-0.8-59-16.8
		c-12.1-11.6-18.7-26-21.7-42.3c-7.2-38.9,17.2-77.8,53.2-86.9c15-3.8,29.5-1.8,43.3,5.3c0.7,0.4,1.5,0.7,2.2,1.1
		c0.1,0.1,0.3,0,0.9-0.1c0-21.8,0-43.7,0-65.8c12.2,0,23.9,0,36,0C948.1,1107.2,948.1,1174.9,948.1,1243.1z M912.6,1171.2
		c0-10.3-0.1-20.6,0.1-30.9c0-2.7-0.9-4.1-3.2-5.4c-7.6-4.3-15.6-5.7-24.3-5.8c-15-0.1-25.5,6.9-32.3,19.4
		c-7.6,13.9-8,28.5-1.9,43.3c10.1,24.4,38.7,30.6,58.3,15.7c1.7-1.3,3.2-4.2,3.2-6.4C912.8,1191.2,912.6,1181.2,912.6,1171.2z"/>
	<path class="st2" d="M1122,1186.7c-37.1,0-74.4,0-111.7,0c6,27.7,42.3,41.3,74.4,18.3c7.3,7.3,14.5,14.6,22.1,22.1
		c-9.5,7.4-20.3,13.3-32.5,16.5c-32.4,8.6-60.9,2.3-83.7-23c-11.8-13.1-17.6-28.9-18-46.8c-1.1-41.8,31.8-71.5,64.8-75.7
		c38.6-4.9,75.1,17.6,84.7,54.9C1124.3,1161.8,1124.3,1180.8,1122,1186.7z M1086.5,1157.2c-4.1-15.1-18.6-28.8-38.3-29
		c-17-0.2-32.7,11.4-37.7,27.7c0.1,0.7,0.1,1.4,0.2,2.1c25,0,50,0,75,0C1085.9,1157.8,1086.2,1157.5,1086.5,1157.2z"/>
	<path class="st2" d="M1291.1,1186.8c-37.4,0-74.7,0-112,0c6.4,26.9,41.5,41.5,74.7,18.1c7.3,7.3,14.6,14.6,22.1,22.1
		c-12.2,9.3-25.7,15.6-41.1,18.4c-30.5,5.5-56.1-2.8-76.3-26.2c-11-12.8-16.4-28.1-16.9-45.2c-1.2-38.8,27.3-69.6,62.2-75.5
		c35.1-5.9,71.7,11.2,85.4,48.1C1292.9,1157,1294,1178.4,1291.1,1186.8z M1255.5,1157.2c-4.1-15.1-18.6-28.8-38.3-29
		c-17-0.2-32.7,11.4-37.7,27.7c0.1,0.7,0.1,1.4,0.2,2.1c25,0,50,0,75,0C1254.9,1157.8,1255.2,1157.5,1255.5,1157.2z"/>
	<path class="st2" d="M679.7,1173c3.2,32.8-26.4,75.1-78.4,74c-37-0.7-72.9-31-72.9-75c-0.1-39.8,32.5-71.1,66.1-73.9
		c22-1.8,42.7,2.3,59.9,17.4C671.5,1130.6,680.5,1149.3,679.7,1173z M602.9,1128.9c-2.6,0.4-5.1,0.7-7.7,1.2
		c-22.1,4.3-37.7,31.4-29.5,56c6.7,20.3,26.5,32.7,46.1,28.5c24.1-5.1,37.8-30.1,31.1-55.2C639.1,1145.1,625.6,1128.3,602.9,1128.9z
		"/>
	<path class="st3" d="M736.7,1101.4c0,4.4,0,8.5,0,14.3c23-27.4,45-21.2,67.1,0c-6.3,10-12.6,19.9-18.9,30c-2.7-2.4-5.1-4.5-7.4-6.6
		c-7-6.4-15.3-9.3-24.3-5.7c-10,3.9-14.1,12.6-15.6,22.7c-0.5,3.3-0.5,6.6-0.5,10c0,23.8,0,47.6,0,71.5c0,1.8,0,3.6,0,5.5
		c-12.1,0-23.7,0-35.5,0c0-47.3,0-94.3,0-141.7C713.2,1101.4,724.6,1101.4,736.7,1101.4z"/>
	<path class="st4" d="M529.8,1048.6c-0.1-0.7-0.2-1.4-0.3-2.1C529.7,1047.2,529.7,1047.9,529.8,1048.6z"/>
	<path class="st4" d="M264.7,1046.5c-0.3,0.3-0.6,0.5-0.9,0.8C264.1,1047,264.4,1046.7,264.7,1046.5z"/>
	<path class="st5" d="M1010.5,1155.9c0.1,0.7,0.1,1.4,0.2,2.1C1010.6,1157.3,1010.5,1156.6,1010.5,1155.9z"/>
	<path class="st5" d="M1085.6,1158c0.3-0.3,0.6-0.5,0.9-0.8C1086.2,1157.5,1085.9,1157.8,1085.6,1158z"/>
	<path class="st5" d="M1179.5,1155.9c0.1,0.7,0.1,1.4,0.2,2.1C1179.6,1157.3,1179.5,1156.6,1179.5,1155.9z"/>
	<path class="st5" d="M1254.6,1158c0.3-0.3,0.6-0.5,0.9-0.8C1255.2,1157.5,1254.9,1157.8,1254.6,1158z"/>
</g>
</svg>
