<?xml version="1.0" encoding="utf-8"?>
<!-- Generator: Adobe Illustrator 24.1.2, SVG Export Plug-In . SVG Version: 6.00 Build 0)  -->
<svg version="1.1" id="LOGO_FINAL_xA0_Image_1_" xmlns="http://www.w3.org/2000/svg" xmlns:xlink="http://www.w3.org/1999/xlink"
	 x="0px" y="0px" viewBox="0 0 1550.6 1015.5" style="enable-background:new 0 0 1550.6 1015.5;" xml:space="preserve">
<style type="text/css">
	.st0{fill:#EB4C4C;}
	.st1{fill:#F6AB9D;}
	.st2{fill:#37505E;}
	.st3{fill:#DEE2E4;}
</style>
<g>
	<path class="st0" d="M1523.7,36.4c-4.4,11-8.7,21.8-13.1,32.6c-45.1,111.8-90.2,223.7-135.3,335.5
		C1317,549,1258.7,693.5,1200.4,838c-10.9,27-21.7,54-32.7,80.9c-12.2,29.9-38.2,47.3-70.4,47.3c-84.7,0-169.3,0-254,0
		c-20.8,0-35.8-10-43.8-29.4C738.2,786.9,676.9,636.9,615.6,487c-7.9-19.4-7.3-38.5-0.1-58.2c8.8-24,16.2-48.6,24.1-72.9
		c26.9-83.2,53.9-166.4,80.8-249.6c7.5-23.1,14.9-46.2,22.7-70.5C820.5,223.8,897.6,410.8,975,598.9c4.9-12.1,9.4-23.2,13.9-34.3
		c65.7-163.1,131.4-326.1,197.1-489.2c4.7-11.7,9.5-23.4,14.1-35.2c1.1-2.8,2.3-4.1,5.7-4.1c104.8,0.1,209.7,0.1,314.5,0.1
		C1521.2,36.2,1522.2,36.3,1523.7,36.4z"/>
	<path class="st1" d="M30.4,36.2c2.7,0,4.7,0,6.7,0c88.7,0,177.3,0.2,266-0.1c29.3-0.1,57.5,18,69.3,46.8
		c31.8,77.8,63.8,155.4,95.8,233.1c25.6,62.3,51.3,124.6,76.9,186.9c28,68,56,136,84,204s56,136,84,204c7.5,18.1,15,36.3,22.5,54.4
		c0.3,0.7,0.5,1.5,1,3c-2.4,0-4.4,0-6.3,0c-89.2,0-178.3-0.2-267.5,0.1c-28.2,0.1-56.7-18.3-68.1-46.2
		C366.5,853.1,338,784.1,309.6,715c-24.4-59.4-48.8-118.8-73.2-178.1c-29.2-70.9-58.5-141.8-87.7-212.7
		c-24.5-59.5-49-119.1-73.4-178.6C61,111.2,46.8,76.7,32.6,42.3C32,40.6,31.4,38.9,30.4,36.2z"/>
	<path class="st2" d="M529.8,1048.6c-0.1-0.7-0.2-1.4-0.3-2.1C529.7,1047.2,529.7,1047.9,529.8,1048.6z"/>
	<path class="st2" d="M264.7,1046.5c-0.3,0.3-0.6,0.5-0.9,0.8C264.1,1047,264.4,1046.7,264.7,1046.5z"/>
	<path class="st3" d="M1010.5,1155.9c0.1,0.7,0.1,1.4,0.2,2.1C1010.6,1157.3,1010.5,1156.6,1010.5,1155.9z"/>
	<path class="st3" d="M1085.6,1158c0.3-0.3,0.6-0.5,0.9-0.8C1086.2,1157.5,1085.9,1157.8,1085.6,1158z"/>
	<path class="st3" d="M1179.5,1155.9c0.1,0.7,0.1,1.4,0.2,2.1C1179.6,1157.3,1179.5,1156.6,1179.5,1155.9z"/>
	<path class="st3" d="M1254.6,1158c0.3-0.3,0.6-0.5,0.9-0.8C1255.2,1157.5,1254.9,1157.8,1254.6,1158z"/>
</g>
</svg>
